# Blender 5.0.1
# www.blender.org
o base_top
v 0.101373 0.379204 0.148306
v 0.176718 0.347838 0.148306
v 0.357464 0.173233 0.148306
v 0.392944 0.081572 0.148306
v 0.391133 -0.043853 0.148306
v 0.346646 -0.139117 0.148306
v 0.177775 -0.301087 0.148306
v 0.088463 -0.336243 0.148306
v -0.090685 -0.335097 0.148306
v -0.177563 -0.302899 0.148306
v -0.347252 -0.139228 0.148306
v -0.392658 -0.048543 0.148306
v -0.393577 0.086312 0.148306
v -0.355658 0.174415 0.148306
v -0.180829 0.345091 0.148306
v -0.099826 0.380395 0.148306
v 0.101373 0.379204 0.156308
v 0.176718 0.347838 0.156308
v 0.357464 0.173233 0.156308
v 0.392944 0.081572 0.156308
v 0.391133 -0.043853 0.156308
v 0.346646 -0.139117 0.156308
v 0.177775 -0.301087 0.156308
v 0.088463 -0.336243 0.156308
v -0.090685 -0.335097 0.156308
v -0.177563 -0.302899 0.156308
v -0.347252 -0.139228 0.156308
v -0.392658 -0.048543 0.156308
v -0.393577 0.086312 0.156308
v -0.355658 0.174415 0.156308
v -0.180829 0.345091 0.156308
v -0.099826 0.380395 0.156308
vn -0.0000 -0.0000 -1.0000
vn -0.0000 -0.0000 1.0000
vn -0.9185 0.3953 -0.0000
vn 0.6922 -0.7217 -0.0000
vn -0.6986 0.7156 -0.0000
vn 0.3663 -0.9305 -0.0000
vn -0.3995 0.9167 -0.0000
vn -0.0064 -1.0000 -0.0000
vn 0.3843 0.9232 -0.0000
vn 0.0059 1.0000 -0.0000
vn -0.3475 -0.9377 -0.0000
vn 0.6948 0.7192 -0.0000
vn -0.6942 -0.7198 -0.0000
vn 0.9326 0.3610 -0.0000
vn -0.8942 -0.4477 -0.0000
vn 0.9999 -0.0144 -0.0000
vn -1.0000 -0.0068 -0.0000
vn 0.9061 -0.4231 -0.0000
s 0
f 8//1 12//1 16//1
f 26//2 22//2 18//2
f 13//3 30//3 14//3
f 6//4 23//4 7//4
f 14//5 31//5 15//5
f 7//6 24//6 8//6
f 15//7 32//7 16//7
f 8//8 25//8 9//8
f 1//9 18//9 2//9
f 16//10 17//10 1//10
f 9//11 26//11 10//11
f 2//12 19//12 3//12
f 10//13 27//13 11//13
f 3//14 20//14 4//14
f 11//15 28//15 12//15
f 4//16 21//16 5//16
f 12//17 29//17 13//17
f 5//18 22//18 6//18
f 16//1 1//1 2//1
f 2//1 3//1 4//1
f 4//1 5//1 6//1
f 6//1 7//1 8//1
f 8//1 9//1 10//1
f 10//1 11//1 12//1
f 12//1 13//1 14//1
f 14//1 15//1 16//1
f 16//1 2//1 4//1
f 4//1 6//1 8//1
f 8//1 10//1 12//1
f 12//1 14//1 16//1
f 16//1 4//1 8//1
f 18//2 17//2 32//2
f 32//2 31//2 30//2
f 30//2 29//2 28//2
f 28//2 27//2 26//2
f 26//2 25//2 24//2
f 24//2 23//2 22//2
f 22//2 21//2 20//2
f 20//2 19//2 18//2
f 18//2 32//2 30//2
f 30//2 28//2 26//2
f 26//2 24//2 22//2
f 22//2 20//2 18//2
f 18//2 30//2 26//2
f 13//3 29//3 30//3
f 6//4 22//4 23//4
f 14//5 30//5 31//5
f 7//6 23//6 24//6
f 15//7 31//7 32//7
f 8//8 24//8 25//8
f 1//9 17//9 18//9
f 16//10 32//10 17//10
f 9//11 25//11 26//11
f 2//12 18//12 19//12
f 10//13 26//13 27//13
f 3//14 19//14 20//14
f 11//15 27//15 28//15
f 4//16 20//16 21//16
f 12//17 28//17 29//17
f 5//18 21//18 22//18
