# Blender 5.0.1
# www.blender.org
o WTB-5L-Handle-M5_default.004
v -0.222560 0.285854 0.158314
v -0.222556 0.285849 0.165934
v -0.222717 0.286013 0.158314
v -0.222717 0.286013 0.165934
v -0.218942 0.284091 0.169744
v -0.220123 0.287581 0.169744
v -0.222188 0.282803 0.169744
v -0.224164 0.288813 0.169744
v -0.225716 0.284685 0.169744
v -0.221658 0.286765 0.170623
v -0.220893 0.287592 0.172397
v -0.223547 0.284885 0.172296
v -0.224361 0.284170 0.177409
v -0.227175 0.284787 0.179509
v -0.219822 0.289729 0.173194
v -0.221916 0.290526 0.173929
v -0.226203 0.288728 0.176973
v -0.226463 0.283004 0.180071
v -0.218569 0.284127 0.175380
v -0.225093 0.281742 0.179726
v -0.221453 0.281590 0.178107
v -0.218579 0.288126 0.173444
v -0.222991 0.280410 0.180030
v -0.226321 0.283250 0.180292
v -0.223089 0.290878 0.175084
v -0.219045 0.288599 0.174208
v -0.215590 0.282904 0.173308
v -0.224573 0.274077 0.181879
v -0.228740 0.269454 0.186488
v -0.228654 0.270259 0.187248
v -0.211271 0.287624 0.169065
v -0.210795 0.288130 0.170148
v -0.211233 0.287455 0.158045
v -0.211184 0.287458 0.165128
v -0.218157 0.295045 0.168986
v -0.213462 0.290267 0.168986
v -0.214804 0.293644 0.158045
v -0.214804 0.293644 0.165128
v -0.220763 0.297282 0.169067
v -0.220247 0.297750 0.170152
v -0.220931 0.297323 0.158045
v -0.220927 0.297372 0.165128
v -0.234538 0.284218 0.181879
v -0.225556 0.293045 0.173308
v -0.236378 0.277139 0.186826
v -0.231683 0.272361 0.186826
v -0.265434 0.234041 0.186175
v -0.241341 0.257717 0.186175
v -0.240141 0.280758 0.186108
v -0.239132 0.280035 0.186526
v -0.251189 0.267738 0.186175
v -0.275281 0.244062 0.186175
v -0.246265 0.262727 0.187842
v -0.270357 0.239052 0.187842
v -0.280244 0.224640 0.186826
v -0.284940 0.229418 0.186826
v -0.276481 0.221023 0.186108
v -0.277487 0.221749 0.186525
v -0.282084 0.217561 0.181879
v -0.291067 0.208734 0.173308
v -0.287882 0.232325 0.186487
v -0.287967 0.231521 0.187247
v -0.301032 0.218875 0.173308
v -0.292050 0.227702 0.181879
v -0.296946 0.203410 0.168750
v -0.296094 0.204123 0.168937
v -0.298465 0.206734 0.168986
v -0.303161 0.211512 0.168986
v -0.295691 0.204456 0.158045
v -0.295696 0.204407 0.165128
v -0.301818 0.208135 0.165128
v -0.301818 0.208135 0.158045
v -0.305389 0.214324 0.158045
v -0.305439 0.214321 0.165128
v -0.305352 0.214155 0.169067
v -0.305829 0.213648 0.170153
v -0.293534 0.210901 0.175084
v -0.297578 0.213180 0.174208
v -0.293631 0.221369 0.180030
v -0.290301 0.218529 0.180292
v -0.296769 0.212088 0.173217
v -0.289448 0.216992 0.179509
v -0.294712 0.211260 0.173926
v -0.290422 0.213051 0.176971
v -0.290160 0.218775 0.180071
v -0.298504 0.214504 0.173600
v -0.297827 0.212825 0.173363
v -0.298065 0.218119 0.175620
v -0.291564 0.220028 0.179719
v -0.295234 0.220219 0.178096
v -0.293125 0.216934 0.172295
v -0.292287 0.217631 0.177407
v -0.294914 0.214977 0.170624
v -0.295704 0.214166 0.172399
v -0.292326 0.212859 0.169744
v -0.296439 0.213881 0.169744
v -0.290830 0.216121 0.169744
v -0.296239 0.218053 0.169744
v -0.292553 0.219666 0.169744
v -0.293894 0.215754 0.158314
v -0.293890 0.215749 0.165934
v -0.294067 0.215930 0.158314
v -0.294062 0.215925 0.165934
v -0.232645 0.285145 0.154504
v -0.222782 0.293319 0.154504
v -0.215161 0.286364 0.154504
v -0.222969 0.280453 0.154504
v -0.233915 0.284439 0.164188
v -0.233915 0.284439 0.157732
v -0.224341 0.274697 0.157732
v -0.224341 0.274697 0.164188
v -0.232832 0.280624 0.160960
v -0.228136 0.275846 0.160960
v -0.234376 0.284118 0.170652
v -0.238572 0.279820 0.177752
v -0.242010 0.276623 0.179704
v -0.224867 0.274268 0.170074
v -0.227814 0.271288 0.176635
v -0.231916 0.267247 0.179644
v -0.230469 0.266009 0.176497
v -0.273914 0.223315 0.176497
v -0.216069 0.280159 0.163863
v -0.288313 0.209165 0.163863
v -0.282707 0.217340 0.164188
v -0.282707 0.217340 0.157732
v -0.294332 0.208743 0.154504
v -0.292809 0.226204 0.154504
v -0.293372 0.218848 0.154504
v -0.285486 0.218109 0.154504
v -0.303804 0.215315 0.154504
v -0.286154 0.235770 0.176497
v -0.242708 0.278464 0.176497
v -0.300553 0.221620 0.163863
v -0.228309 0.292614 0.163863
v -0.292281 0.227082 0.157732
v -0.292281 0.227082 0.164188
v -0.284706 0.234532 0.179644
v -0.288809 0.230491 0.176635
v -0.291755 0.227511 0.170074
v -0.274613 0.225156 0.179704
v -0.278050 0.221959 0.177752
v -0.282247 0.217661 0.170652
v -0.288486 0.225933 0.160960
v -0.283790 0.221155 0.160960
v -0.273124 0.245908 0.180218
v -0.253072 0.265613 0.180218
v -0.243498 0.255871 0.180218
v -0.263550 0.236166 0.180218
v -0.275764 0.229043 0.168378
v -0.280459 0.233821 0.168378
v -0.240859 0.272736 0.168378
v -0.236163 0.267958 0.168378
v -0.278513 0.234781 0.175110
v -0.274784 0.230970 0.175069
v -0.270967 0.231970 0.178073
v -0.272107 0.229773 0.178893
v -0.268235 0.235847 0.177908
v -0.269759 0.234116 0.177957
v -0.268830 0.233328 0.176920
v -0.270033 0.230873 0.177829
v -0.264740 0.237276 0.178318
v -0.266459 0.236862 0.178197
v -0.263886 0.237800 0.177953
v -0.263589 0.237166 0.178196
v -0.272841 0.238947 0.178910
v -0.270504 0.236568 0.178945
v -0.275667 0.239219 0.177668
v -0.274681 0.239989 0.177330
v -0.277493 0.238407 0.178464
v -0.280370 0.236788 0.178525
v -0.274528 0.242186 0.176926
v -0.273350 0.244618 0.177835
v -0.273759 0.240732 0.177391
v -0.273014 0.241762 0.177667
v -0.272663 0.243256 0.177760
v -0.271974 0.244515 0.178750
v -0.270131 0.248146 0.178473
v -0.271282 0.246440 0.178662
v -0.241838 0.270808 0.175071
v -0.238111 0.266999 0.175110
v -0.237077 0.264390 0.178953
v -0.239197 0.263477 0.177898
v -0.241477 0.262137 0.177912
v -0.243015 0.260400 0.177969
v -0.243274 0.257160 0.177836
v -0.242096 0.259590 0.176927
v -0.243962 0.258527 0.177774
v -0.244650 0.257267 0.178760
v -0.246491 0.253633 0.178473
v -0.245341 0.255339 0.178662
v -0.243756 0.262853 0.178953
v -0.246094 0.265232 0.178917
v -0.245660 0.269810 0.178072
v -0.244516 0.272006 0.178894
v -0.247023 0.267005 0.177391
v -0.246278 0.268036 0.177667
v -0.247795 0.268447 0.176919
v -0.246590 0.270905 0.177828
v -0.247943 0.266264 0.177334
v -0.248925 0.265495 0.177680
v -0.251992 0.264683 0.178371
v -0.250370 0.264854 0.177763
v -0.252736 0.263979 0.177953
v -0.253033 0.264613 0.178196
v -0.248133 0.269777 0.178317
v -0.277362 0.241053 0.178317
v -0.282318 0.235551 0.178317
v -0.242554 0.274628 0.178317
v -0.256762 0.261282 0.178476
v -0.257910 0.259577 0.178671
v -0.259295 0.256391 0.177768
v -0.258606 0.257646 0.178772
v -0.266104 0.250842 0.177953
v -0.266401 0.251476 0.178196
v -0.261172 0.255304 0.176921
v -0.259986 0.257749 0.177834
v -0.265362 0.251546 0.178365
v -0.263746 0.251716 0.177746
v -0.262299 0.252356 0.177668
v -0.261313 0.253126 0.177330
v -0.260391 0.253868 0.177391
v -0.259646 0.254899 0.177667
v -0.257151 0.249690 0.178953
v -0.259488 0.252069 0.178918
v -0.262894 0.242191 0.172854
v -0.267098 0.246449 0.172854
v -0.259859 0.240497 0.178473
v -0.258709 0.242202 0.178662
v -0.257330 0.245390 0.177774
v -0.258018 0.244130 0.178760
v -0.268489 0.232003 0.178317
v -0.239260 0.260727 0.178317
v -0.274069 0.227151 0.178317
v -0.234305 0.266228 0.178317
v -0.249526 0.255330 0.172851
v -0.253727 0.259588 0.172851
v -0.251372 0.250412 0.178318
v -0.253091 0.249999 0.178197
v -0.254867 0.248985 0.177912
v -0.256390 0.247258 0.177969
v -0.256638 0.244029 0.177834
v -0.255453 0.246472 0.176922
v -0.250518 0.250937 0.177953
v -0.250221 0.250303 0.178196
vn -0.0000 -0.0000 1.0000
vn -0.0000 -0.0000 -1.0000
vt 0.935217 0.651627
vt 0.532116 0.859880
vt 0.822894 0.224999
vt 0.123947 0.439588
vt 0.796102 0.846257
vt 0.307768 0.911984
vt 0.889128 0.855665
vt 0.223240 0.248582
vt 0.956684 0.033615
vt 0.957682 0.034407
vt 0.956684 0.966385
vt 0.560809 0.578333
vt 0.177783 0.132554
vt 0.091176 0.890775
s 0
f 5/1/1 6/2/1 7/3/1
f 98/4/1 97/5/1 99/6/1
f 105/7/2 107/8/2 104/9/2
f 130/10/2 127/11/2 128/12/2
f 130/10/2 128/12/2 126/13/2
f 127/11/2 129/14/2 128/12/2
l 1 2
l 17 14
l 16 17
l 31 32
l 39 40
l 55 56
l 57 58
l 60 59
l 61 62
l 77 78
l 80 79
l 77 80
l 102 103
l 126 129
l 141 142
l 147 148
l 191 192
l 211 212
l 215 216
l 227 228
l 3 4
l 15 16
l 37 38
l 51 52
l 63 64
l 83 84
l 88 90
l 91 92
l 96 95
l 105 106
l 115 116
l 117 118
l 118 119
l 138 139
l 140 141
l 156 155
l 157 158
l 179 180
l 201 202
l 206 207
l 217 218
l 221 222
l 223 224
l 232 234
l 8 9
l 12 13
l 25 24
l 65 66
l 69 70
l 84 82
l 137 138
l 143 144
l 149 150
l 164 163
l 182 181
l 195 196
l 209 210
l 235 236
l 237 238
l 241 242
l 10 11
l 71 72
l 96 98
l 108 109
l 114 115
l 154 153
l 175 176
l 177 178
l 199 200
l 214 213
l 19 22
l 20 21
l 23 24
l 23 26
l 29 30
l 33 34
l 35 36
l 49 50
l 53 54
l 75 76
l 89 90
l 95 97
l 106 107
l 131 132
l 131 133
l 169 170
l 185 186
l 189 190
l 239 240
l 9 7
l 14 18
l 19 21
l 41 42
l 46 45
l 110 111
l 120 121
l 120 122
l 132 134
l 171 172
l 187 188
l 220 219
l 226 225
l 244 243
l 26 25
l 28 27
l 44 43
l 79 78
l 83 81
l 86 88
l 87 86
l 121 123
l 135 136
l 145 146
l 151 152
l 168 167
l 183 184
l 194 193
l 197 198
l 205 206
l 205 208
l 231 232
l 231 233
l 8 6
l 47 48
l 67 68
l 73 74
l 82 85
l 93 94
l 100 101
l 112 113
l 124 125
l 160 159
l 161 162
l 165 166
l 173 174
l 204 203
l 229 230
